<svg
	viewBox="0 0 24 24"
	fill="#bada55"
	stroke="none"
	stroke-width="2"
	stroke-linecap="round"
	stroke-linejoin="round"
	xmlns="http://www.w3.org/2000/svg"
>
	<defs></defs>

	<path
		d="M 21.894 22.232 L 1.958 22.232 L 1.958 18.681 L 10.498 18.681 L 10.498 15.716 L 1.958 15.716 L 1.958 12.02 L 21.894 12.02 L 21.894 15.716 L 13.018 15.716 L 13.018 18.681 L 21.894 18.681 L 21.894 22.232 Z"
	></path>
	<path
		d="M 15.546 1.232 L 17.442 1.232 C 18.058 1.232 18.641 1.361 19.192 1.619 C 19.743 1.876 20.233 2.232 20.662 2.686 C 21.091 3.14 21.432 3.671 21.684 4.28 C 21.936 4.889 22.062 5.543 22.062 6.245 C 22.062 6.843 21.987 7.452 21.838 8.071 C 21.689 8.69 21.427 9.247 21.054 9.742 C 20.681 10.237 20.2 10.645 19.612 10.965 C 19.024 11.284 18.273 11.444 17.358 11.444 L 6.382 11.444 C 5.729 11.444 5.122 11.321 4.562 11.073 C 4.002 10.825 3.517 10.475 3.106 10.021 C 2.695 9.566 2.373 9.025 2.14 8.396 C 1.907 7.767 1.79 7.071 1.79 6.307 C 1.79 4.822 2.229 3.615 3.106 2.686 C 3.535 2.232 4.044 1.876 4.632 1.619 C 5.22 1.361 5.859 1.232 6.55 1.232 L 8.096 1.232 L 8.096 4.388 L 6.718 4.388 C 6.158 4.388 5.673 4.564 5.262 4.914 C 4.851 5.265 4.646 5.74 4.646 6.338 C 4.646 7.122 4.865 7.643 5.304 7.901 C 5.743 8.158 6.298 8.288 6.97 8.288 L 17.162 8.288 C 17.741 8.288 18.226 8.148 18.618 7.87 C 19.01 7.591 19.206 7.091 19.206 6.369 C 19.206 6.162 19.173 5.941 19.108 5.704 C 19.043 5.466 18.935 5.245 18.786 5.038 C 18.637 4.853 18.431 4.698 18.17 4.574 C 17.909 4.45 17.582 4.388 17.19 4.388 L 15.546 4.388 L 15.546 1.232 Z"
	></path>
</svg>