<svg xmlns="http://www.w3.org/2000/svg" viewBox="0 0 35 35">
  <g fill="#fff">
    <path d="M28.62 9.76h-5.54l.01 2.54c-2.34-2.71-5.46-2.55-5.46-2.55h-8.1L.5 25.23h6.09l1.87-3.27H12v3.28l5.5.01s3.19.06 5.57-2.58v2.56h5.19v-3.26h.54c2.1.16 5.72-2.02 5.7-6.23a5.85 5.85 0 0 0-5.88-5.98zm-.35 10.34h-2.03v3.27h-1.28V20.1h-2.27s-1.22 3.15-5.33 3.26l-3.34.01v-3.29H7.34L5.4 23.37H3.86l6.75-11.6h6.72a5.88 5.88 0 0 1 5.84 4.92h1.79v-4.96h3.45c2.6.13 4.13 2.32 4.18 3.8a4.35 4.35 0 0 1-4.32 4.57z"/>
    <path d="M15.34 13.09V15h1.73c3.4-.01 3.4 5.07-.1 5.06h-1.63v1.92H17c2.64.01 4.7-1.8 4.7-4.61 0-1.75-1.5-4.3-4.4-4.3h-1.95zm10.98.01v1.93h1.86c1.2.06 1.23 1.8.01 1.79h-1.86v1.94h1.76c1.57 0 2.98-1.1 2.98-2.94 0-1.83-1.44-2.72-2.98-2.72h-1.77zm-14.23-.04h1.93v5.71H8.17l1.13-1.96 2.78.01v-3.76zm19 10.45a.89.89 0 0 1 .26.65.9.9 0 0 1-.26.65.88.88 0 0 1-.65.27.87.87 0 0 1-.65-.27.9.9 0 0 1-.27-.65c0-.26.1-.47.27-.65a.87.87 0 0 1 .65-.27.9.9 0 0 1 .65.27zm.1-.1c-.2-.21-.46-.32-.75-.32s-.55.1-.76.31a1.03 1.03 0 0 0-.3.76 1.06 1.06 0 1 0 2.12 0 1.01 1.01 0 0 0-.31-.76zm-.6.7a.54.54 0 0 1-.19.02h-.19v-.42h.18c.23 0 .32.04.32.21 0 .1-.03.16-.11.19zm-.58.63h.2v-.46h.17c.1 0 .18.01.23.03.07.05.1.14.1.27v.1l.01.04v.02h.2v-.01a.23.23 0 0 1-.02-.07v-.16a.3.3 0 0 0-.27-.3c.2-.03.29-.12.29-.28 0-.15-.06-.25-.19-.3a.89.89 0 0 0-.31-.04H30v1.17z"/>
  </g>
</svg>