<svg xmlns="http://www.w3.org/2000/svg" viewBox="0 0 75.7 75.7">
  <path fill="#fff" d="M18.95 52.86a91 91 0 0 0 3.5 11.81 21.88 21.88 0 0 1-3.5-4.46s0-.09-.09-.09a98.57 98.57 0 0 1-1.84-6.82c-.08-.18-.08-.35-.17-.62a21.36 21.36 0 0 1 16.01-25.46c3.41-.79 7-.61 10.33.35.26.09.35.26.35.52v1.14c0 .35-.35.61-.7.53a18.3 18.3 0 0 0-9.72-.27c-10.06 2.37-16.45 12.7-14.17 23.02v.35Zm4.72-22.84a.67.67 0 0 0 .18-.44v-1.05c0-.44-.53-.7-.79-.44a24.37 24.37 0 0 0-7.17 8.32v4.98a23.42 23.42 0 0 1 7.78-11.37Zm30.9 14.35a17.26 17.26 0 0 0-7.88-11.03 18.33 18.33 0 0 0-7.53-2.53c-.26 0-.52.17-.52.52v.88c0 .26.17.52.44.52a15 15 0 0 1 6.56 2.28 15.46 15.46 0 0 1 7 9.8c.17.96.44 2.01.7 2.97.09.27.26.35.52.35h.97c.35 0 .6-.35.52-.61-.35-1.05-.61-2.1-.79-3.15ZM40.73 20.39v.88c0 .26.17.44.43.52 3.6.53 7 1.67 10.16 3.68a16.5 16.5 0 0 1 2.36 1.75c.35.26.87 0 .87-.44v-1.14a.67.67 0 0 0-.17-.43 32.14 32.14 0 0 0-5.25-3.15 27.22 27.22 0 0 0-7.79-2.2c-.35-.08-.61.18-.61.53Zm6.65 25.73a9.93 9.93 0 0 0-3.68-5.78.55.55 0 0 0-.87.44v1.14c0 .17.08.26.17.35a8.15 8.15 0 0 1 2.45 4.29v.09a65.14 65.14 0 0 0 4.81 14.43c.1.18.27.27.44.27h.79c.35 0 .61-.44.44-.7-2.45-5.78-3.77-11.47-4.55-14.53Zm-12.08-7.7a10.33 10.33 0 0 0-7.52 12.34 79.63 79.63 0 0 0 5.5 16.71c.1.18.27.35.45.35h.96c.35 0 .61-.35.44-.7a78.75 78.75 0 0 1-5.52-16.8 8.26 8.26 0 0 1 6.13-9.98 7.54 7.54 0 0 1 4.99.44c.35.18.7-.09.7-.44v-.96c0-.17-.18-.44-.35-.52a10 10 0 0 0-5.78-.44Zm8.58 8.49A6.66 6.66 0 0 0 41 42.8a6.2 6.2 0 0 0-4.11-.88c-.27 0-.44.26-.44.52v1.32c0 .09.09.17.17.17a4.7 4.7 0 0 1 3.42.53 4.88 4.88 0 0 1 2.01 2.71l.09.17c.35 1.67.7 3.24 1.22 4.82.09.26.27.35.53.35h.87c.35 0 .62-.35.53-.7a31.34 31.34 0 0 1-1.4-4.9ZM29.62 22.76l1.93-.53c2.36-.52 4.81-.79 7.18-.7.26 0 .52-.26.52-.52v-.88a.56.56 0 0 0-.52-.52 27.67 27.67 0 0 0-22.76 10.23c-.08.1-.08.27-.08.35v3.07a26.49 26.49 0 0 1 13.73-10.5Zm8.93-12.87c0 .26.18.53.53.53a36.65 36.65 0 0 1 17.85 5.42 23 23 0 0 0-2.45-3.5c-.1-.08-.1-.08-.18-.17A41.92 41.92 0 0 0 39.08 8.4a.56.56 0 0 0-.53.53v.96Zm8.75 5.25c0 .27.18.44.35.53a34.04 34.04 0 0 1 11.29 6.21l.26.26a40.43 40.43 0 0 0-.87-3.06c0-.09-.1-.17-.18-.26a35 35 0 0 0-10.24-5.08.56.56 0 0 0-.7.53v.87h.09Zm3.15-6.38a22.5 22.5 0 0 0-10.41-3.94c-.44 0-.96-.09-1.4-.09h-2.02a21.79 21.79 0 0 0-11.2 3.85 40.12 40.12 0 0 1 25.03.18Zm-13.39.17a.56.56 0 0 0-.52-.53 40.6 40.6 0 0 0-7.88 1.05c-2.45.62-4.72 1.4-6.91 2.37-.09 0-.09.08-.18.08a19.17 19.17 0 0 0-2.53 3.42 37 37 0 0 1 17.5-4.99c.26 0 .52-.26.52-.53v-.87ZM24.2 51.55c.17.87.44 1.75.61 2.62.09.26.26.35.53.35h.87c.35 0 .61-.35.53-.61-.27-.88-.44-1.84-.62-2.71-1.05-4.73.7-9.37 4.2-12.26a.66.66 0 0 0 .18-.43v-1.14c0-.44-.44-.7-.79-.44a14.14 14.14 0 0 0-5.51 14.62Zm1.49-31.33c.17-.09.35-.26.35-.44v-.96a.48.48 0 0 0-.7-.44 30.14 30.14 0 0 0-9.2 5.95c-.08.09-.17.18-.17.35-.08.61-.08 1.31-.08 1.93v.52a32.14 32.14 0 0 1 9.8-6.91Zm20.12-5.78v-.87c0-.27-.17-.44-.44-.53a35.36 35.36 0 0 0-16 .09 34.82 34.82 0 0 0-11.9 5.34c-.1.09-.18.17-.18.26-.35.96-.7 1.93-.88 2.89a33.9 33.9 0 0 1 17.85-7.44c3.68-.35 7.35-.17 10.85.7.35.18.7-.09.7-.44ZM21.66 47.52h-.87a.56.56 0 0 0-.53.52c0 1.5.09 2.98.44 4.47a103 103 0 0 0 4.37 14.26c0 .09.1.18.18.26.79.62 1.66 1.14 2.62 1.58a99.26 99.26 0 0 1-5.25-16.63 14.97 14.97 0 0 1-.35-3.93c-.08-.35-.35-.53-.6-.53Zm27.04-17.5c-.88-.61-1.84-1.05-2.8-1.49a.48.48 0 0 0-.7.44v1.22c0 .18.09.35.26.44a19.3 19.3 0 0 1 10.76 13.3 63.7 63.7 0 0 0 2.98 9.8c.26-1.31.44-2.71.53-4.11v-.17a66.31 66.31 0 0 1-1.67-5.96 21.25 21.25 0 0 0-9.36-13.47Zm5.43 20.3a58.82 58.82 0 0 0 3.32 8.49c.35-.7.61-1.4.96-2.19.1-.09 0-.26 0-.35a48.9 48.9 0 0 1-2.27-6.3.59.59 0 0 0-.53-.35h-.96c-.35 0-.61.35-.52.7ZM34.79 36.76c2.97-.7 6.3-.27 8.92 1.4a11.8 11.8 0 0 1 5.34 7.52v.09c.7 3.15 2.36 10.32 5.95 16.8.44-.52.79-1.05 1.14-1.57a.56.56 0 0 0 0-.53 67.01 67.01 0 0 1-5.34-15.23 14.15 14.15 0 0 0-6.21-8.75 13.19 13.19 0 0 0-10.24-1.66c-.79.18-1.49.44-2.19.7-.17.09-.35.26-.35.44v1.05c0 .35.35.61.7.44.88-.27 1.58-.53 2.28-.7m16.88 26.77c.27.62.62 1.14.97 1.75l1.05-1.05a.54.54 0 0 0 .09-.6l-.27-.53a.48.48 0 0 0-.43-.27h-.88c-.44-.08-.7.35-.53.7ZM30.15 16.72c-.79.17-1.49.44-2.19.61a.59.59 0 0 0-.35.53v1.13c0 .27.26.44.44.35a29.61 29.61 0 0 1 31.76 8.32V26.6c0-.53 0-1.05-.08-1.58a.67.67 0 0 0-.18-.35 32.03 32.03 0 0 0-29.4-7.96m25.9 11.02v1.23c0 .17.09.26.18.35a24.04 24.04 0 0 1 3.5 4.37v-3.15c0-.08 0-.26-.1-.35a21.2 21.2 0 0 0-2.7-2.88c-.27-.27-.88 0-.88.43Zm-5.51-.78a24.52 24.52 0 0 0-18.47-3.07c-2.27.53-4.37 1.4-6.38 2.54a.48.48 0 0 0-.27.44v.96c0 .44.44.61.8.44a20.87 20.87 0 0 1 6.12-2.45 22.42 22.42 0 0 1 17.06 2.71 23.1 23.1 0 0 1 10.33 14.35v-5.6c0-.09 0-.17-.1-.26a24.54 24.54 0 0 0-9.1-10.06ZM37.06 32.2v-.88a.56.56 0 0 0-.52-.52 17.5 17.5 0 0 0-16.01 14.61c-.1.35.17.61.52.61h.87c.27 0 .44-.17.53-.44a15.67 15.67 0 0 1 11.64-12.5c.87-.18 1.66-.36 2.53-.36.27-.09.44-.26.44-.52Zm7 22.57a71.94 71.94 0 0 0 5.69 12.7c.44-.27.79-.53 1.14-.8a.68.68 0 0 0 .17-.7 68.38 68.38 0 0 1-5.16-11.55.59.59 0 0 0-.52-.35h-.88a.48.48 0 0 0-.44.7ZM34.7 44.9a.67.67 0 0 0 .17-.35V43.4c0-.44-.43-.7-.78-.44a6.59 6.59 0 0 0-2.72 6.91 82.87 82.87 0 0 0 7.53 20.74c.09.18.26.26.52.26.62 0 1.23-.08 1.75-.17a83.06 83.06 0 0 1-7.96-21.26 4.9 4.9 0 0 1 1.49-4.55Zm-9.19 11.8a95.33 95.33 0 0 0 4.55 12.7c.09.08.18.26.26.26.7.26 1.5.52 2.2.7a94.84 94.84 0 0 1-5.26-13.91c-.09-.27-.26-.36-.52-.36h-.88c-.17 0-.44.27-.35.62Zm8.93 13.4c.09.17.17.35.17.43a.5.5 0 0 0 .44.27c.61.08 1.31.17 2.01.17-.26-.44-.44-.87-.7-1.31a.48.48 0 0 0-.44-.26h-.96c-.44-.1-.7.35-.52.7Zm4.64-24.07a2.94 2.94 0 0 0-2.1-.35 2.84 2.84 0 0 0-2.1 3.41c.7 3.33 1.66 6.57 2.7 9.72.1.17.27.35.53.35H39c.35 0 .61-.35.52-.7a74 74 0 0 1-2.8-9.8c-.09-.44.18-.96.62-1.05.26-.09.43 0 .7.09.17.08.34.34.43.52a74.38 74.38 0 0 0 7.96 21c.62-.26 1.14-.52 1.75-.87A68.66 68.66 0 0 1 40.3 47.7a2.65 2.65 0 0 0-1.22-1.67Zm-.44 15.23A88.16 88.16 0 0 0 42.75 70c.09.17.35.35.61.26.53-.09.97-.26 1.49-.44a69.55 69.55 0 0 1-4.29-8.92c-.09-.18-.26-.35-.44-.35h-.96c-.43 0-.7.44-.52.7Z" class="st1"/>
</svg>