<svg xmlns="http://www.w3.org/2000/svg" viewBox="0 0 100 100">
  <path fill="#fff" d="M97.78 69.96 77.27 44.07l11.04-13.2c1.8-2.19 3.28-3.18 3.28-3.18H86.7c-.38 1.26-1.3 2.43-1.83 3.15l-8.74 11.8s-5.65-7.17-9.16-11.83c-.48-.64-1.2-1.54-1.71-3.12H59.9s1.91 1.1 4.23 4.33c0 0 9.95 12.68 10.07 12.86L62.94 58.35c-1.79 2.18-3.28 3.18-3.28 3.18h4.89c.37-1.3 1.83-3.14 1.83-3.14l8.94-12.09 19.84 25.3c.23.34.4.57.5.85H100s-.39-.08-2.22-2.5"/>
  <path fill="#fff" d="M60 44.63v.03c0 2.69-.71 5.9-2.06 8.3A14.3 14.3 0 0 1 51.43 59a12.82 12.82 0 0 1-5.07 1.09A12.8 12.8 0 0 1 41.29 59a14.3 14.3 0 0 1-6.5-6.05 17.85 17.85 0 0 1-2.07-8.3v-.07c0-2.69.71-5.9 2.07-8.3 1.53-2.7 3.8-4.83 6.5-6.05a12.8 12.8 0 0 1 5.07-1.1v.01c1.62 0 3.46.37 5.07 1.1a14.3 14.3 0 0 1 6.5 6.05 17.87 17.87 0 0 1 2.08 8.3v.03Zm2.96-.01c-.06-9.47-7.46-17.13-16.6-17.16-9.14.02-16.54 7.69-16.6 17.17.06 9.48 7.46 17.14 16.6 17.17 9.14-.03 16.54-7.7 16.6-17.17v-.01Zm-46.48-17.1C7.38 27.59.05 35.22 0 44.65c.06 9.44 7.42 17.09 16.52 17.14 0 0 5.05.29 11.08-2.66v-4.46a15.39 15.39 0 0 1-11.04 5.42A12.7 12.7 0 0 1 11.51 59 14.29 14.29 0 0 1 5 52.96a17.83 17.83 0 0 1 0-16.63 14.27 14.27 0 0 1 6.5-6.04 12.8 12.8 0 0 1 5.05-1.09c.58 0 6.76.18 11.03 5.37v-4.4c-5.8-2.92-11.1-2.65-11.1-2.65"/>
  <g transform="matrix(1.06555 0 0 -1.06555 -73.05 539.09)">
    <path fill="#fff" d="M95.37 442.88h-3.32v-1.53h2.94v-.92h-2.94v-1.58h3.36v-.93h-4.4v5.88h4.36v-.92zm5.37.92h1.02v-5.88h-.86l-3.25 4.19v-4.19h-1.01v5.88h.96l3.14-4.06v4.06zm5.02-5.88h-1.04v4.93h-1.87v.95h4.77v-.95h-1.86v-4.93zm7.31 4.96h-3.32v-1.53h2.94v-.92h-2.94v-1.58h3.36v-.93h-4.4v5.88h4.36v-.92zm3.8-.02h-1.5v-1.97h1.51c.74 0 1.21.38 1.21.99 0 .65-.45.98-1.22.98m1.24-4.94-1.45 2.05h-1.3v-2.05h-1.02v5.88h2.62c1.35 0 2.18-.71 2.18-1.86 0-.98-.58-1.56-1.4-1.79l1.58-2.23h-1.21zm4.53 4.94h-1.2v-2.11h1.2c.78 0 1.27.42 1.27 1.05 0 .7-.5 1.06-1.27 1.06m-.03-3.05h-1.17v-1.89h-1.03v5.88h2.31c1.37 0 2.24-.77 2.24-1.97 0-1.33-1.06-2.02-2.35-2.02m5.94 3.05h-1.5v-1.97h1.5c.75 0 1.22.38 1.22.99 0 .65-.45.98-1.22.98m1.24-4.94-1.45 2.05h-1.3v-2.05h-1.02v5.88h2.62c1.35 0 2.18-.71 2.18-1.86 0-.98-.58-1.56-1.4-1.79l1.58-2.23h-1.21zm3.39 0h-1.04v5.88h1.04v-5.88zm3.83 3.41c1.25-.3 1.9-.74 1.9-1.73 0-1.1-.87-1.76-2.1-1.76-.9 0-1.75.31-2.46.94l.62.74a2.7 2.7 0 0 1 1.86-.76c.64 0 1.04.29 1.04.74 0 .43-.23.66-1.33.91-1.25.3-1.95.67-1.95 1.76 0 1.03.84 1.72 2 1.72.86 0 1.54-.27 2.14-.74l-.56-.78c-.53.4-1.05.6-1.6.6-.6 0-.95-.3-.95-.7 0-.47.27-.67 1.4-.94m7.46 1.55h-3.33v-1.53h2.95v-.92h-2.95v-1.58h3.37v-.93h-4.4v5.88h4.36v-.92zm3.53-1.55c1.25-.3 1.9-.74 1.9-1.73 0-1.1-.87-1.76-2.1-1.76-.9 0-1.75.31-2.46.94l.62.74a2.7 2.7 0 0 1 1.86-.76c.64 0 1.04.29 1.04.74 0 .43-.24.66-1.33.91-1.25.3-1.95.67-1.95 1.76 0 1.03.84 1.72 2 1.72.86 0 1.54-.27 2.14-.74l-.56-.78c-.53.4-1.06.6-1.6.6-.6 0-.95-.3-.95-.7 0-.47.27-.67 1.4-.94"/>
  </g>
</svg>