<svg width="" height="" id="svg2" version="1.1" viewBox="0 0 100 100" xmlns="http://www.w3.org/2000/svg">
  <defs id="defs4"></defs>
  <path d="M 97.785 69.958 L 77.257 44.073 L 88.299 30.866 C 90.093 28.683 91.582 27.693 91.582 27.693 L 86.695 27.689 C 86.307 28.946 85.388 30.125 84.862 30.838 C 81.457 35.447 76.122 42.644 76.122 42.644 C 76.122 42.644 70.475 35.471 66.962 30.81 C 66.48 30.172 65.752 29.267 65.248 27.686 L 59.905 27.686 C 59.905 27.686 61.821 28.794 64.139 32.02 C 64.139 32.02 74.09 44.704 74.214 44.878 L 62.943 58.354 C 61.15 60.535 59.661 61.528 59.661 61.528 L 64.549 61.529 C 64.916 60.226 66.384 58.388 66.384 58.388 L 75.322 46.301 C 75.322 46.301 94.897 71.259 95.163 71.6 C 95.389 71.939 95.554 72.167 95.665 72.446 L 100.001 72.446 C 100.001 72.446 99.611 72.369 97.785 69.958" style="fill-opacity: 1; fill-rule: nonzero; stroke: none; fill: rgb(255, 255, 255);" id="path3017"></path>
  <path d="M 60.005 44.634 L 60.005 44.658 C 60.005 47.346 59.287 50.568 57.937 52.957 C 56.405 55.657 54.14 57.788 51.43 59.006 C 49.816 59.733 47.981 60.097 46.356 60.1 L 46.356 60.103 C 44.735 60.099 42.903 59.736 41.292 59.012 C 38.583 57.791 36.318 55.661 34.788 52.961 C 33.434 50.574 32.717 47.35 32.717 44.663 C 32.717 44.65 32.717 44.637 32.717 44.624 C 32.717 44.614 32.717 44.602 32.717 44.59 C 32.717 41.904 33.434 38.682 34.788 36.293 C 36.316 33.594 38.582 31.464 41.292 30.243 C 42.903 29.517 44.735 29.155 46.356 29.149 L 46.356 29.151 C 47.98 29.158 49.816 29.519 51.428 30.246 C 54.14 31.466 56.403 33.597 57.934 36.296 C 59.287 38.684 60.005 41.908 60.005 44.594 C 60.005 44.608 60.004 44.621 60.004 44.634 L 60.005 44.634 Z M 62.961 44.62 C 62.901 35.148 55.498 27.486 46.365 27.458 L 46.365 27.454 C 37.222 27.478 29.815 35.15 29.761 44.63 L 29.762 44.63 C 29.818 54.108 37.225 61.775 46.365 61.802 L 46.365 61.797 C 55.498 61.767 62.902 54.104 62.961 44.634 L 62.962 44.634 L 62.962 44.62 L 62.961 44.62 Z" style="fill-opacity: 1; fill-rule: nonzero; stroke: none; fill: rgb(255, 255, 255);" id="path3029"></path>
  <path d="M 16.482 27.519 C 7.389 27.588 0.051 35.218 -0.001 44.649 C 0.055 54.089 7.416 61.74 16.516 61.792 C 16.516 61.792 21.568 62.077 27.596 59.125 L 27.591 54.67 C 23.297 59.893 17.079 60.086 16.561 60.091 C 14.942 60.086 13.114 59.724 11.506 59.003 C 8.803 57.783 6.541 55.657 5.014 52.963 C 3.664 50.58 2.948 47.363 2.948 44.682 C 2.948 41.928 3.664 38.712 5.014 36.328 C 6.541 33.634 8.801 31.508 11.506 30.29 C 13.114 29.566 14.943 29.208 16.561 29.201 C 17.142 29.205 23.323 29.376 27.591 34.567 L 27.596 30.179 C 21.782 27.254 16.482 27.519 16.482 27.519" style="fill-opacity: 1; fill-rule: nonzero; stroke: none; fill: rgb(255, 255, 255);" id="path3033"></path>
  <g id="g3035" transform="matrix(1.06555, 0, 0, -1.06555, -73.049232, 539.087463)" style="">
    <g id="g3037" clip-path="url(#clipPath3039)">
      <g id="g3043" transform="translate(95.371,442.8781)">
        <path d="m 0,0 -3.325,0 0,-1.528 2.947,0 0,-0.923 -2.947,0 0,-1.578 3.367,0 0,-0.925 -4.399,0 0,5.878 L 0,0.924 0,0 z" style="fill-opacity: 1; fill-rule: nonzero; stroke: none; fill: rgb(255, 255, 255);" id="path3045"></path>
      </g>
      <g id="g3047" transform="translate(100.7443,443.8023)">
        <path d="m 0,0 1.016,0 0,-5.878 -0.865,0 -3.241,4.182 0,-4.182 -1.016,0 0,5.878 0.958,0 L 0,-4.064 0,0 z" style="fill-opacity: 1; fill-rule: nonzero; stroke: none; fill: rgb(255, 255, 255);" id="path3049"></path>
      </g>
      <g id="g3051" transform="translate(105.757,437.9245)">
        <path d="m 0,0 -1.041,0 0,4.921 -1.864,0 0,0.957 4.769,0 0,-0.957 L 0,4.921 0,0 z" style="fill-opacity: 1; fill-rule: nonzero; stroke: none; fill: rgb(255, 255, 255);" id="path3053"></path>
      </g>
      <g id="g3055" transform="translate(113.0695,442.8781)">
        <path d="m 0,0 -3.324,0 0,-1.528 2.946,0 0,-0.923 -2.946,0 0,-1.578 3.366,0 0,-0.925 -4.399,0 0,5.878 L 0,0.924 0,0 z" style="fill-opacity: 1; fill-rule: nonzero; stroke: none; fill: rgb(255, 255, 255);" id="path3057"></path>
      </g>
      <g id="g3059" transform="translate(116.8722,442.8617)">
        <path d="m 0,0 -1.503,0 0,-1.973 1.512,0 c 0.739,0 1.209,0.386 1.209,0.991 C 1.218,-0.336 0.765,0 0,0 m 1.235,-4.937 -1.444,2.048 -1.294,0 0,-2.048 -1.032,0 0,5.878 2.619,0 c 1.352,0 2.183,-0.715 2.183,-1.864 0,-0.975 -0.579,-1.562 -1.402,-1.789 l 1.587,-2.225 -1.217,0 z" style="fill-opacity: 1; fill-rule: nonzero; stroke: none; fill: rgb(255, 255, 255);" id="path3061"></path>
      </g>
      <g id="g3063" transform="translate(122.6406,442.8617)">
        <path d="m 0,0 -1.201,0 0,-2.116 1.201,0 c 0.781,0 1.268,0.428 1.268,1.058 C 1.268,-0.361 0.772,0 0,0 m -0.034,-3.048 -1.167,0 0,-1.889 -1.032,0 0,5.878 2.317,0 c 1.369,0 2.234,-0.774 2.234,-1.974 0,-1.326 -1.058,-2.015 -2.352,-2.015" style="fill-opacity: 1; fill-rule: nonzero; stroke: none; fill: rgb(255, 255, 255);" id="path3065"></path>
      </g>
      <g id="g3067" transform="translate(128.5514,442.8617)">
        <path d="m 0,0 -1.503,0 0,-1.973 1.511,0 c 0.739,0 1.209,0.386 1.209,0.991 C 1.217,-0.336 0.764,0 0,0 m 1.235,-4.937 -1.445,2.048 -1.293,0 0,-2.048 -1.033,0 0,5.878 2.62,0 c 1.352,0 2.183,-0.715 2.183,-1.864 0,-0.975 -0.58,-1.562 -1.402,-1.789 l 1.587,-2.225 -1.217,0 z" style="fill-opacity: 1; fill-rule: nonzero; stroke: none; fill: rgb(255, 255, 255);" id="path3069"></path>
      </g>
      <path d="m 133.178,437.924 -1.033,0 0,5.878 1.033,0 0,-5.878 z" style="fill-opacity: 1; fill-rule: nonzero; stroke: none; fill: rgb(255, 255, 255);" id="path3071"></path>
      <g id="g3073" transform="translate(137.0147,441.3337)">
        <path d="m 0,0 c 1.243,-0.303 1.889,-0.747 1.889,-1.729 0,-1.109 -0.865,-1.764 -2.099,-1.764 -0.899,0 -1.747,0.311 -2.452,0.94 l 0.621,0.74 c 0.563,-0.487 1.125,-0.765 1.856,-0.765 0.638,0 1.041,0.294 1.041,0.747 0,0.429 -0.235,0.655 -1.326,0.907 -1.251,0.303 -1.957,0.672 -1.957,1.763 0,1.025 0.84,1.713 2.007,1.713 0.856,0 1.537,-0.261 2.133,-0.739 L 1.158,1.032 C 0.629,1.427 0.101,1.637 -0.436,1.637 -1.041,1.637 -1.394,1.327 -1.394,0.932 -1.394,0.47 -1.126,0.268 0,0" style="fill-opacity: 1; fill-rule: nonzero; stroke: none; fill: rgb(255, 255, 255);" id="path3075"></path>
      </g>
      <g id="g3077" transform="translate(144.4784,442.8781)">
        <path d="m 0,0 -3.325,0 0,-1.528 2.948,0 0,-0.923 -2.948,0 0,-1.578 3.366,0 0,-0.925 -4.398,0 0,5.878 L 0,0.924 0,0 z" style="fill-opacity: 1; fill-rule: nonzero; stroke: none; fill: rgb(255, 255, 255);" id="path3079"></path>
      </g>
      <g id="g3081" transform="translate(148.0137,441.3337)">
        <path d="m 0,0 c 1.242,-0.303 1.889,-0.747 1.889,-1.729 0,-1.109 -0.865,-1.764 -2.099,-1.764 -0.899,0 -1.747,0.311 -2.452,0.94 l 0.621,0.74 c 0.563,-0.487 1.125,-0.765 1.856,-0.765 0.637,0 1.041,0.294 1.041,0.747 0,0.429 -0.235,0.655 -1.326,0.907 -1.252,0.303 -1.957,0.672 -1.957,1.763 0,1.025 0.84,1.713 2.007,1.713 0.856,0 1.537,-0.261 2.132,-0.739 L 1.158,1.032 C 0.629,1.427 0.1,1.637 -0.437,1.637 -1.042,1.637 -1.395,1.327 -1.395,0.932 -1.395,0.47 -1.126,0.268 0,0" style="fill-opacity: 1; fill-rule: nonzero; stroke: none; fill: rgb(255, 255, 255);" id="path3083"></path>
      </g>
    </g>
  </g>
</svg>