<svg xmlns="http://www.w3.org/2000/svg" viewBox="0 0 55 55">
  <path fill="#fff" d="M7.33 16.25v22.2c0 .33.17.64.47.8l4.84 2.79a.94.94 0 0 0 1.4-.81L14 20.37c0-.33.18-.64.46-.81l12.56-7.3c.3-.18.67-.17.96 0l12.52 7.4c.28.18.46.48.46.8v14.15c0 .34-.18.64-.46.81L28 42.67a.96.96 0 0 1-.95 0l-4.86-2.84a.94.94 0 0 0-1.42.81v5.57c0 .32.18.63.46.8l5.82 3.48c.29.17.66.17.95 0l19.21-11.22a.9.9 0 0 0 .46-.8v-22.2a.9.9 0 0 0-.47-.81L27.97 4.5a.97.97 0 0 0-.93 0L7.8 15.45a.94.94 0 0 0-.47.8Z"/>
  <path fill="#fff" d="M33.74 23.22 27.95 20a.93.93 0 0 0-.91 0l-5.79 3.22a.94.94 0 0 0-.48.82v6.76c0 .33.18.64.47.81L27.02 35c.3.17.66.17.96 0l5.78-3.38a.93.93 0 0 0 .47-.8v-6.77a.95.95 0 0 0-.48-.82h-.01Z"/>
</svg>