<svg version="1.2" baseProfile="tiny" id="Layer_1" x="0px" y="0px" width="625px" height="60px" viewBox="0 0 625 625" xmlns="http://www.w3.org/2000/svg">
  <defs></defs>
  <g style="" transform="matrix(0.939269, 0, 0, 0.939269, 18.978407, 77.236824)">
    <g transform="matrix(2.323188, 0, 0, 2.323188, -22.913191, 161.938034)" style="">
      <title>vmware</title>
      <path d="M124.209,56.729l-12.54-34.92c-0.165-0.482-0.403-1.119-0.403-1.678c0-1.514,1.281-2.951,3.113-2.951   c1.6,0,2.642,1.036,3.122,2.553l10.387,30.088l10.463-30.171c0.477-1.434,1.441-2.47,3.029-2.47h0.326   c1.68,0,2.718,1.036,3.194,2.47l10.382,30.171l10.557-30.245c0.4-1.281,1.27-2.396,2.954-2.396c1.757,0,3.035,1.353,3.035,2.875   c0,0.557-0.24,1.19-0.397,1.677l-12.624,34.997c-0.646,1.83-1.917,2.789-3.358,2.789h-0.239c-1.6,0-2.801-0.959-3.362-2.789   l-10.297-29.672l-10.392,29.672c-0.558,1.83-1.759,2.789-3.354,2.789h-0.166C126.125,59.518,124.85,58.559,124.209,56.729" style="fill: rgb(255, 255, 255);"></path>
      <path d="M215.623,20.225c0-1.686,1.357-3.124,3.037-3.124c1.767,0,3.124,1.359,3.124,3.124v7.085   c3.04-6.882,9.78-10.13,14.245-10.13c1.848,0,3.048,1.359,3.048,3.119c0,1.682-1.119,2.876-2.729,3.121   c-8.006,0.958-14.564,6.962-14.564,18.891v14.027c0,1.686-1.28,3.119-3.039,3.119c-1.765,0-3.122-1.365-3.122-3.119V20.225" style="fill: rgb(255, 255, 255);"></path>
      <path d="M258.846,59.848c-11.136,0-20.232-8.635-20.232-21.307v-0.166c0-11.795,8.235-21.303,19.449-21.303   c11.992,0,18.823,9.896,18.823,20.75c0,1.67-1.347,2.857-2.828,2.857H244.74c0.854,8.867,7.046,13.859,14.267,13.859   c5.018,0,8.697-1.984,11.682-4.754c0.467-0.393,1.018-0.709,1.726-0.709c1.487,0,2.666,1.188,2.666,2.615   c0,0.713-0.313,1.426-0.944,1.975C270.297,57.387,265.747,59.848,258.846,59.848 M270.845,36.162   c-0.628-7.448-4.869-13.938-12.943-13.938c-7.058,0-12.393,5.936-13.162,13.938H270.845z" style="fill: rgb(255, 255, 255);"></path>
      <path d="M171.94,47.025v-0.162c0-8.697,7.183-13.326,17.63-13.326c5.271,0,9.017,0.717,12.698,1.76v-1.443   c0-7.414-4.562-11.248-12.293-11.248c-4.153,0-6.568,0.527-9.605,1.879c-0.395,0.162-0.796,0.243-1.11,0.243   c-1.436,0-2.715-1.2-2.715-2.634c0-1.273,0.556-2.062,1.679-2.559c4.061-1.763,7.126-2.35,12.389-2.35   c5.821,0,10.292,1.511,13.316,4.546c2.796,2.792,4.236,6.781,4.236,12.048v22.766c0,1.75-1.277,3.029-2.961,3.029   c-1.748,0-2.935-1.279-2.935-2.873v-3.939c-2.877,3.758-7.669,7.109-14.916,7.109C179.685,59.871,171.94,55.48,171.94,47.025    M202.341,43.834v-3.992c-3.036-0.877-7.11-1.762-12.131-1.762c-7.731,0-12.047,3.359-12.047,8.541v0.158   c0,5.186,4.787,8.219,10.375,8.219C196.112,54.998,202.341,50.369,202.341,43.834" style="fill: rgb(255, 255, 255);"></path>
      <path d="M12.431,19.769c-1.352-2.962-4.692-4.305-7.811-2.916c-3.119,1.387-4.27,4.847-2.858,7.813l13.092,28.453   c2.061,4.465,4.232,6.801,8.302,6.801c4.351,0,6.249-2.547,8.306-6.801c0,0,11.42-24.865,11.533-25.122   c0.118-0.264,0.484-1.066,1.646-1.061c0.982,0.01,1.809,0.791,1.809,1.841v24.318c0,3.75,2.08,6.824,6.079,6.824   c3.995,0,6.158-3.074,6.158-6.824V33.201c0-3.837,2.748-6.327,6.497-6.327c3.748,0,6.242,2.575,6.242,6.327v19.895   c0,3.75,2.086,6.824,6.079,6.824c3.995,0,6.168-3.074,6.168-6.824V33.201c0-3.837,2.739-6.327,6.489-6.327   c3.743,0,6.247,2.575,6.247,6.327v19.895c0,3.75,2.082,6.824,6.078,6.824c3.993,0,6.162-3.074,6.162-6.824V30.453   c0-8.324-6.691-14.153-14.744-14.153c-8.045,0-13.083,5.564-13.083,5.564c-2.677-3.473-6.369-5.561-12.614-5.561   c-6.591,0-12.36,5.561-12.36,5.561c-2.681-3.473-7.242-5.561-11.02-5.561c-5.84,0-10.481,2.571-13.31,9.04l-8.362,19.711   L12.431,19.769" style="fill: rgb(255, 255, 255);"></path>
      <path d="M 277.381 22.236 L 277.381 22.201 C 277.381 19.416 279.639 17.073 282.479 17.073 C 285.359 17.073 287.587 19.393 287.587 22.177 L 287.587 22.2 C 287.587 24.994 285.335 27.337 282.479 27.337 C 279.602 27.338 277.381 25.026 277.381 22.236 M 286.608 22.201 L 286.608 22.185 C 286.608 19.898 284.837 18.02 282.48 18.02 C 280.143 18.02 278.348 19.929 278.348 22.201 L 278.348 22.225 C 278.348 24.512 280.123 26.389 282.48 26.389 C 284.812 26.39 286.608 24.482 286.608 22.201" style="fill: rgb(255, 255, 255);"></path>
      <path d="M 280.528 20.183 C 280.528 19.879 280.77 19.636 281.076 19.636 L 282.781 19.636 C 283.422 19.636 283.917 19.819 284.223 20.143 C 284.505 20.414 284.655 20.808 284.655 21.268 L 284.655 21.286 C 284.655 22.063 284.263 22.538 283.67 22.788 L 284.42 23.706 C 284.524 23.841 284.596 23.956 284.596 24.12 C 284.596 24.426 284.34 24.622 284.08 24.622 C 283.839 24.622 283.675 24.5 283.545 24.343 L 282.487 23.004 L 281.617 23.004 L 281.617 24.079 C 281.617 24.383 281.384 24.622 281.075 24.622 C 280.769 24.622 280.527 24.383 280.527 24.079 L 280.527 20.183 L 280.528 20.183 Z M 282.721 22.038 C 283.251 22.038 283.545 21.762 283.545 21.339 L 283.545 21.323 C 283.545 20.86 283.231 20.617 282.702 20.617 L 281.618 20.617 L 281.618 22.038 L 282.721 22.038 Z" style="fill: rgb(255, 255, 255);"></path>
    </g>
  </g>
</svg>