<svg xmlns="http://www.w3.org/2000/svg" baseProfile="tiny" version="1.2" viewBox="0 0 625 625">
  <g fill="#fff">
    <path d="m268.48 353.13-27.32-76.22c-.37-1.05-.88-2.44-.88-3.67a6.63 6.63 0 0 1 6.77-6.43c3.49 0 5.78 2.27 6.83 5.56l22.67 65.68 22.83-65.85c1.04-3.12 3.14-5.4 6.6-5.4h.73c3.66 0 5.91 2.28 6.96 5.4l22.65 65.83 23.04-65.99c.87-2.81 2.77-5.23 6.44-5.23a6.44 6.44 0 0 1 6.63 6.26c0 1.22-.52 2.62-.87 3.67l-27.54 76.37c-1.42 4-4.19 6.09-7.33 6.09h-.52c-3.5 0-6.11-2.1-7.34-6.11l-22.47-64.72-22.7 64.74c-1.2 4-3.81 6.09-7.3 6.09H276c-3.32 0-6.1-2.1-7.49-6.11m199.44-79.6a6.72 6.72 0 1 1 13.45 0v15.44c6.63-15.01 21.34-22.1 31.1-22.1 4.03 0 6.65 2.97 6.65 6.8a6.68 6.68 0 0 1-5.96 6.81c-17.46 2.1-31.8 15.2-31.8 41.25v30.59a6.66 6.66 0 0 1-6.63 6.8 6.72 6.72 0 0 1-6.8-6.8v-78.82m94.33 86.48c-24.31 0-44.17-18.85-44.17-46.48v-.4c0-25.72 17.98-46.47 42.44-46.47 26.19 0 41.1 21.6 41.1 45.28a6.18 6.18 0 0 1-6.18 6.24H531.5c1.85 19.35 15.38 30.24 31.14 30.24 10.95 0 18.98-4.34 25.48-10.39a5.79 5.79 0 0 1 3.78-1.52 5.76 5.76 0 0 1 5.8 5.7c0 1.54-.67 3.11-2.05 4.31-8.38 8.12-18.33 13.49-33.39 13.49m26.19-51.7c-1.35-16.25-10.6-30.41-28.24-30.41-15.4 0-27.05 12.96-28.71 30.41h56.95zm-215.81 23.7v-.35c0-18.98 15.67-29.06 38.47-29.06 11.5 0 19.68 1.55 27.71 3.84v-3.17c0-16.17-9.95-24.52-26.84-24.52-9.05 0-14.31 1.13-20.94 4.1-.88.35-1.75.52-2.43.52a5.96 5.96 0 0 1-5.91-5.76c0-2.77 1.2-4.5 3.64-5.56 8.86-3.86 15.56-5.13 27.06-5.13 12.68 0 22.43 3.27 29.02 9.9 6.11 6.12 9.28 14.8 9.28 26.3v49.67a6.37 6.37 0 0 1-6.48 6.6 6.15 6.15 0 0 1-6.4-6.25v-8.6c-6.28 8.2-16.73 15.51-32.55 15.51-16.72 0-33.63-9.58-33.63-28.02m66.34-6.98v-8.7a94.05 94.05 0 0 0-26.47-3.85c-16.87 0-26.3 7.34-26.3 18.64v.35c0 11.32 10.46 17.94 22.65 17.94 16.52 0 30.12-10.1 30.12-24.38m-414.4-52.5a12.7 12.7 0 0 0-17.05-6.37 12.44 12.44 0 0 0-6.24 17.06l28.59 62.08c4.47 9.74 9.23 14.84 18.1 14.84 9.5 0 13.62-5.56 18.12-14.84l25.18-54.81a3.61 3.61 0 0 1 3.6-2.31 3.96 3.96 0 0 1 3.95 4.01v53.07c0 8.16 4.54 14.88 13.27 14.88s13.44-6.72 13.44-14.9v-43.4c0-8.38 6-13.82 14.18-13.82 8.16 0 13.62 5.63 13.62 13.82v43.42c0 8.18 4.54 14.88 13.24 14.88 8.73 0 13.47-6.7 13.47-14.88v-43.42c0-8.38 5.98-13.82 14.18-13.82 8.16 0 13.62 5.63 13.62 13.82v43.42c0 8.18 4.54 14.88 13.27 14.88 8.7 0 13.44-6.7 13.44-14.88v-49.43c0-18.15-14.62-30.87-32.17-30.87-17.56 0-28.56 12.13-28.56 12.13-5.83-7.57-13.9-12.13-27.52-12.13-14.4 0-26.97 12.13-26.97 12.13a32.27 32.27 0 0 0-24.04-12.13c-12.75 0-22.87 5.6-29.05 19.72l-18.24 43.01-23.41-55.16m578.12 5.39v-.09a11.2 11.2 0 0 1 11.13-11.2 11.13 11.13 0 0 1 11.13 11.14v.06c0 6.11-4.91 11.22-11.13 11.22a11.09 11.09 0 0 1-11.13-11.13m20.14-.09v-.04a8.95 8.95 0 0 0-9.01-9.08 9.06 9.06 0 0 0-9.01 9.12v.07a8.95 8.95 0 0 0 9.01 9.08 9.04 9.04 0 0 0 9.01-9.15"/>
    <path d="M609.6 273.37c0-.65.53-1.17 1.2-1.17h3.71c1.4 0 2.5.39 3.15 1.09.6.59.93 1.46.93 2.46v.05c0 1.68-.85 2.72-2.13 3.27l1.63 2c.22.3.4.55.4.9 0 .66-.57 1.1-1.14 1.1-.52 0-.87-.27-1.16-.62l-2.3-2.92h-1.9v2.35c0 .66-.53 1.18-1.2 1.18a1.18 1.18 0 0 1-1.19-1.18v-8.5Zm4.8 4.06c1.14 0 1.77-.6 1.77-1.52v-.05c0-1-.65-1.53-1.83-1.53h-2.36v3.1h2.4Z"/>
  </g>
</svg>